<svg fill="#282828" xmlns="http://www.w3.org/2000/svg" xmlns:xlink="http://www.w3.org/1999/xlink" version="1.1" x="0px" y="0px" viewBox="0 0 96 96" enable-background="new 0 0 96 96" xml:space="preserve"><g><path d="M58.348,57.258c0-1.18-0.957-2.136-2.136-2.136h-0.064h-6.891h-0.064c-1.18,0-2.136,0.956-2.136,2.136l0.934,10.295   l-3.345,14.069h4.501v4.241c0,1.18,0.936,2.137,2.09,2.137h0.064h2.803h0.064c1.153,0,2.089-0.958,2.089-2.137v-4.241h4.502   l-3.344-14.069L58.348,57.258z"></path><path d="M36.72,28.67H21.816c-2.526,0-4.575,2.049-4.575,4.576v25.938c0,2.492,1.996,4.512,4.477,4.566v19.674   c0,2.527,2.007,4.576,4.48,4.576h6.144c2.473,0,4.479-2.049,4.479-4.576V63.75c2.48-0.055,4.478-2.072,4.478-4.566V33.247   C41.297,30.719,39.247,28.67,36.72,28.67z"></path><circle cx="29.268" cy="17.763" r="9.763"></circle><circle cx="52.701" cy="49.078" r="5.41"></circle><path d="M75.415,67.553l0.933-10.295c0-1.18-0.957-2.136-2.136-2.136h-0.064h-6.891h-0.064c-1.18,0-2.136,0.956-2.136,2.136   l0.934,10.295l-3.345,14.069h4.501v4.241c0,1.18,0.936,2.137,2.09,2.137h0.064h2.803h0.064c1.153,0,2.089-0.958,2.089-2.137v-4.241   h4.502L75.415,67.553z"></path><circle cx="70.701" cy="49.078" r="5.41"></circle></g></svg>