<svg fill="#282828" xmlns="http://www.w3.org/2000/svg" xmlns:xlink="http://www.w3.org/1999/xlink" version="1.1" x="0px" y="0px" viewBox="0 0 100 100" enable-background="new 0 0 100 100" xml:space="preserve"><g><circle cx="24.799" cy="20.9" r="14.653"></circle></g><g><path d="M24.799,40.083c-12.125,0-21.953,9.829-21.953,21.953v32.545h43.906V62.036C46.752,49.912,36.924,40.083,24.799,40.083z"></path></g><g><path d="M74.029,35.553c8.094,0,14.655-6.56,14.655-14.653c0-8.093-6.562-14.653-14.655-14.653   c-8.091,0-14.652,6.561-14.652,14.653C59.377,28.993,65.938,35.553,74.029,35.553z"></path></g><g><path d="M74.029,40.083c-12.123,0-21.952,9.829-21.952,21.953v32.545h43.906V62.036C95.983,49.912,86.155,40.083,74.029,40.083z"></path></g></svg>