<svg fill="#282828" xmlns="http://www.w3.org/2000/svg" xmlns:xlink="http://www.w3.org/1999/xlink" version="1.1" x="0px" y="0px" viewBox="0 0 96 96" style="enable-background:new 0 0 96 96;" xml:space="preserve"><path d="M76.2,78.9c-0.8-1.8-1.5-3.4-1.1-4.6c5.4-8.5,12.8-17.9,12.8-17.9l-2.3-0.5L72.3,71l-2.7-6.2H51.2c0,0-1.5,4.8-2.3,6.2  c-0.2,0-0.2,0-0.4,0L37,39.8c1.9-0.4,3.8,0,3.8,0c0.5,0.7,1.3,1,2.1,0.7c0.7-0.3,1.2-1.1,1.1-1.9c0,0,1.3-2.1,3.7-2.9  c2.5-0.9,4.8-0.3,4.8-0.3c0.5,0.7,1.3,1,2.1,0.7c0.7-0.3,1.2-1.1,1.1-1.9c0,0,1-2,3.5-2.8c1.6-0.6,3.5-0.4,3.5-0.3  c0.4,0.9,1.4,1.4,2.2,1c0.7-0.3,1.2-1.1,1.1-1.9l-0.2-0.7C59.7,13.4,41.8,5,25.6,10.2c0,0-0.6-1.8-0.9-2.3S23.9,7,23.1,7.2l0,0  c-0.7,0.3-0.9,1-0.6,1.8l0.9,2.3C7.8,17.8,0.1,35.5,6,51.6c0.2,0.5,0.6,0.9,0.6,0.9c0.4,0.6,1.1,0.8,1.9,0.6  c0.8-0.3,1.2-1.2,0.9-2.1c0-0.1,1.4-1.7,3-2.2c2.5-0.9,5.1-0.4,5.1-0.4c0.5,0.7,1.3,1,2.1,0.7c0.8-0.3,1.3-1.2,1.1-2.1  c0.3-0.6,1.3-1.8,3.4-2.4c2.5-0.9,4.8-0.3,4.8-0.3c0.5,0.7,1.3,1,2.1,0.7c0.7-0.3,1.2-1.1,1.1-1.9c0,0,1.1-1.6,2.7-2.3l11.2,30.6  c-7.5,1-13.3,4.2-17.3,7.3c-11.3,1-18.7,2.6-18.7,4.6c0,3,18.5,5.5,41.2,5.5s41-2.6,41-5.7C91.9,81.5,85.7,80,76.2,78.9z M22.7,42.1  c-2.1,0.7-3.6,2-4.5,3.2c-4-12.5-2.2-24.6,4.2-29.9c-0.7,6.5,2.4,18.2,5.2,26.1C26.3,41.3,24.5,41.5,22.7,42.1z M29.9,12.5  c8.3,0,17.7,8.1,22.7,20.2c-1.6-0.6-3.6-0.5-5.9,0.4c-1.7,0.7-3,1.5-3.9,2.4C39.8,27.9,34.7,16.9,29.9,12.5z M53.8,66.5h14.5  l1.2,4.5H52.2L53.8,66.5z M51.3,74.9c6.6,0,13,0,19.5,0c0.7,0.9,1.4,2.2,2.2,3.7c-6.4-0.5-13.9-0.8-22-0.8l-0.4-1  C50.8,76.1,51,75.5,51.3,74.9z M47,74.9l0.4,1c-0.1,0.6-0.3,1.2-0.5,2c-3.9,0.1-7.6,0.2-11.2,0.4C38.9,76.4,42.7,75,47,74.9z"></path></svg>