<svg fill="#282828" xmlns="http://www.w3.org/2000/svg" xmlns:xlink="http://www.w3.org/1999/xlink" version="1.1" x="0px" y="0px" viewBox="0 0 152.334 255.896" style="enable-background:new 0 0 152.334 255.896;" xml:space="preserve"><g><path d="M145.511,0.088c-4.371-0.651-8.439,2.364-9.089,6.734c-4.505,30.05-14.323,45.455-22.305,53.502   c-4.012,4.029-7.624,6.248-10.113,7.462c-1.199,0.583-2.125,0.928-2.71,1.117H63.889c-0.902,0-1.764,0.162-2.568,0.446   c-2.596,0.634-7.143,2.28-12.031,6.476c-6.795,5.791-13.799,16.215-17.57,33.806c-0.002,0.007-0.004,0.013-0.006,0.02v-0.003   c-0.373,1.732-0.709,3.555-1.021,5.431c-1.231,7.406-1.969,15.946-2.025,25.877c-0.025,4.42,3.537,8.02,7.957,8.045   c0.014,0,0.027,0,0.041,0c4.398,0,7.979-3.552,8.002-7.955c0.049-8.939,0.695-16.466,1.716-22.8   c0.295-1.834,0.618-3.582,0.972-5.218c0.001-0.004,0.001-0.007,0.002-0.011c2.335-10.711,5.702-17.213,8.805-21.246v63.458H60   c4.41,0,8,3.59,8,8.002v79.999c0,3.638-2.406,6.706-5.75,7.674v0.992c0,0.565-0.084,1.11-0.23,1.629   c1.891,1.174,4.114,1.863,6.504,1.863c6.828,0,12.365-5.533,12.365-12.363v-90.271h4.635v90.271c0,6.83,5.537,12.363,12.363,12.363   c6.828,0,12.365-5.533,12.365-12.363V82.522c4.034-1.867,9.49-5.161,15.206-10.911c10.732-10.755,21.956-29.819,26.787-62.433   C152.897,4.807,149.881,0.739,145.511,0.088z"></path><circle cx="83.205" cy="40.705" r="22.5"></circle><path d="M60.25,249.217c3.197-0.132,5.75-2.757,5.75-5.987v-80c0-3.313-2.688-6-6-6H49.5v-14.166h2.832v-7.334h-5.559   c-0.061,1.741-0.1,3.513-0.109,5.325c-0.011,2.117-0.691,4.078-1.832,5.692v10.483H21.166v-14.166h5.718   c-0.144-0.69-0.222-1.398-0.218-2.121c0.01-1.767,0.049-3.499,0.102-5.213H13.666v7.334H16.5v14.166H6c-3.315,0-6,2.687-6,6v80   c0,3.23,2.553,5.855,5.75,5.987v2.679c0,2.209,1.791,4,4,4s4-1.791,4-4v-2.666h38.5v2.666c0,2.209,1.791,4,4,4s4-1.791,4-4V249.217   z"></path></g></svg>