<svg xmlns="http://www.w3.org/2000/svg" xmlns:xlink="http://www.w3.org/1999/xlink" version="1.1" x="0px" y="0px" viewBox="0 -25.366 100 125.366" enable-background="new 0 -25.366 100 125.366" xml:space="preserve"><g><circle cx="64.102" cy="-12.115" r="10.841"></circle><path d="M53.513,45.312C53.513,45.312,53.531,45.235,53.513,45.312L53.513,45.312z"></path><path d="M53.513,45.312c1.404-5.875,2.369-11.886,3.548-17.811l1.356,5.444c1.179,4.728,8.25,5.887,9.142-0.108   c0.617-1.544,0.84-3.383,1.239-4.993c1.181-4.755,2.36-9.51,3.541-14.265c1.455-5.867-7.642-8.125-9.099-2.258l-0.274,1.108   c-0.466-3.556-0.441-5.784-1.162-8.676c-1.424-5.714-9.757-7.878-14.342-4.516l1.509-4.561c3.957-11.955-14.584-18.091-18.54-6.136   L19.505,21.555c-3.182,9.609,9.308,17.206,16.354,9.791c-1.948,10.767-3.896,21.534-5.845,32.301   c-0.614,3.396-2.725,5.495-4.778,8.309c-3.196,4.379-6.392,8.759-9.588,13.138c-2.46,3.373-0.573,8.334,3.532,9.19   c2.943,0.613,5.047-1.069,6.65-3.266c3.41-4.672,6.819-9.344,10.229-14.016c2.44-3.344,4.498-5.811,5.245-9.939   c0.874-4.833,1.749-9.666,2.623-14.498l17.354,38.562c3.106,6.903,13.775,2.063,10.686-4.809L53.513,45.312z"></path></g></svg>